<svg width="35" height="35" viewBox="0 0 35 35" fill="none" xmlns="http://www.w3.org/2000/svg">
<path d="M17.5 35C27.165 35 35 27.165 35 17.5C35 7.83502 27.165 0 17.5 0C7.83502 0 0 7.83502 0 17.5C0 27.165 7.83502 35 17.5 35Z" fill="url(#paint0_linear_113_11)"/>
<path d="M25.306 20.0004C24.5106 19.9998 23.7461 20.3073 23.1745 20.8579L20.0673 18.4516C20.3327 17.9908 20.4721 17.4689 20.4716 16.9378C20.4716 16.7544 20.455 16.5714 20.4222 16.3909L22.5592 15.6854C22.9089 16.3794 23.5096 16.9156 24.2406 17.1863C24.9715 17.457 25.7783 17.442 26.4985 17.1442C27.2188 16.8465 27.799 16.2882 28.1223 15.5818C28.4457 14.8753 28.4882 14.0731 28.2413 13.3367C27.9944 12.6003 27.4764 11.9843 26.7916 11.6128C26.1068 11.2413 25.3061 11.1419 24.5506 11.3345C23.7952 11.5271 23.141 11.9975 22.72 12.651C22.2989 13.3044 22.1421 14.0924 22.2812 14.8563L20.142 15.5651C19.8865 15.0577 19.4943 14.631 19.0092 14.3326C18.5242 14.0342 17.9654 13.8758 17.3952 13.8752C17.1128 13.8751 16.8318 13.9141 16.5602 13.9912L15.5164 11.6537C16.1437 11.2603 16.6071 10.6546 16.8215 9.9481C17.0359 9.2416 16.9867 8.4818 16.6831 7.80847C16.3796 7.13515 15.8419 6.59361 15.1692 6.28349C14.4965 5.97337 13.7338 5.91553 13.0217 6.12061C12.3095 6.32569 11.6957 6.77989 11.2931 7.39966C10.8906 8.0194 10.7264 8.7631 10.8308 9.4937C10.9351 10.2244 11.301 10.893 11.8612 11.3765C12.4213 11.86 13.138 12.1259 13.8794 12.1252C14.1618 12.1253 14.4428 12.0863 14.7144 12.0092L15.7582 14.3466C15.4112 14.5633 15.1113 14.8468 14.876 15.1805C14.6408 15.5143 14.475 15.8915 14.3884 16.29C14.3017 16.6885 14.2961 17.1002 14.3717 17.501C14.4473 17.9017 14.6027 18.2833 14.8287 18.6233L11.4622 21.5984C10.8683 21.0986 10.1062 20.8414 9.3294 20.8783C8.55261 20.9153 7.8187 21.2438 7.27534 21.7976C6.73199 22.3515 6.41952 23.0897 6.4008 23.8637C6.38207 24.6376 6.65849 25.39 7.17443 25.9692C7.69038 26.5485 8.40755 26.9118 9.18166 26.9859C9.95577 27.0601 10.7294 26.8396 11.3468 26.3689C11.9642 25.8982 12.3797 25.2121 12.5095 24.4488C12.6394 23.6855 12.474 22.9015 12.0467 22.2547L15.4088 19.2796C15.9892 19.7688 16.7315 20.0259 17.4916 20.001C18.2517 19.9762 18.9754 19.6711 19.5223 19.145L22.6295 21.5514C22.2957 22.1368 22.1651 22.8154 22.2576 23.4823C22.3502 24.1491 22.6609 24.767 23.1417 25.2404C23.6224 25.7138 24.2465 26.0163 24.9173 26.1011C25.5881 26.186 26.2683 26.0484 26.8527 25.7098C27.4371 25.3711 27.8932 24.8502 28.1503 24.2276C28.4075 23.605 28.4514 22.9154 28.2753 22.2655C28.0992 21.6155 27.713 21.0414 27.1762 20.632C26.6395 20.2226 25.9822 20.0006 25.306 20.0004ZM25.306 12.1252C25.7406 12.1252 26.1654 12.2535 26.5268 12.4938C26.8881 12.7342 27.1698 13.0759 27.3361 13.4756C27.5024 13.8753 27.5459 14.3152 27.4612 14.7395C27.3764 15.1638 27.1671 15.5536 26.8598 15.8596C26.5525 16.1655 26.1609 16.3738 25.7347 16.4583C25.3084 16.5427 24.8666 16.4993 24.465 16.3338C24.0635 16.1682 23.7203 15.8878 23.4789 15.5281C23.2374 15.1683 23.1085 14.7454 23.1085 14.3127C23.1085 13.7325 23.3401 13.1761 23.7521 12.7659C24.1642 12.3556 24.7232 12.1252 25.306 12.1252ZM11.6819 9.0626C11.6819 8.6299 11.8108 8.207 12.0523 7.84724C12.2937 7.4875 12.6369 7.20711 13.0384 7.04154C13.44 6.87597 13.8818 6.83265 14.3081 6.91706C14.7343 7.00147 15.1259 7.20981 15.4332 7.51575C15.7405 7.82168 15.9498 8.2115 16.0346 8.6358C16.1194 9.0602 16.0758 9.5 15.9095 9.8997C15.7432 10.2995 15.4616 10.6411 15.1002 10.8815C14.7388 11.1218 14.314 11.2501 13.8794 11.2501C13.2966 11.2501 12.7376 11.0197 12.3256 10.6094C11.9135 10.1992 11.6819 9.6428 11.6819 9.0626ZM9.4845 26.1255C9.04989 26.1255 8.62504 25.9972 8.26368 25.7569C7.90231 25.5165 7.62066 25.1749 7.45435 24.7751C7.28803 24.3754 7.24451 23.9356 7.3293 23.5112C7.41409 23.0869 7.62337 22.6971 7.93069 22.3911C8.238 22.0852 8.62955 21.8769 9.0558 21.7925C9.48206 21.7081 9.92389 21.7514 10.3254 21.9169C10.727 22.0825 11.0702 22.3629 11.3116 22.7226C11.5531 23.0824 11.6819 23.5053 11.6819 23.938C11.6819 24.5182 11.4504 25.0746 11.0383 25.4848C10.6262 25.8951 10.0673 26.1255 9.4845 26.1255ZM17.3952 19.1254C16.9606 19.1254 16.5358 18.9971 16.1744 18.7567C15.8131 18.5163 15.5314 18.1747 15.3651 17.7749C15.1988 17.3752 15.1553 16.9354 15.24 16.511C15.3248 16.0867 15.5341 15.6969 15.8414 15.391C16.1487 15.085 16.5403 14.8767 16.9665 14.7923C17.3928 14.7079 17.8346 14.7512 18.2362 14.9168C18.6377 15.0823 18.9809 15.3627 19.2223 15.7225C19.4638 16.0822 19.5927 16.5051 19.5927 16.9378C19.5927 17.518 19.3612 18.0744 18.9491 18.4846C18.537 18.8949 17.978 19.1254 17.3952 19.1254ZM25.306 25.2505C24.8714 25.2505 24.4465 25.1222 24.0851 24.8819C23.7238 24.6415 23.4421 24.2998 23.2758 23.9001C23.1095 23.5004 23.066 23.0605 23.1508 22.6362C23.2355 22.2118 23.4448 21.8221 23.7521 21.5161C24.0595 21.2102 24.451 21.0018 24.8773 20.9174C25.3035 20.833 25.7454 20.8764 26.1469 21.0419C26.5484 21.2075 26.8916 21.4879 27.1331 21.8476C27.3745 22.2074 27.5034 22.6303 27.5034 23.063C27.5034 23.6431 27.2719 24.1996 26.8598 24.6098C26.4477 25.02 25.8888 25.2505 25.306 25.2505Z" fill="white"/>
<defs>
<linearGradient id="paint0_linear_113_11" x1="17.5" y1="0" x2="17.5" y2="35" gradientUnits="userSpaceOnUse">
<stop stop-color="#C03CFF"/>
<stop offset="0.88" stop-color="#4200FF"/>
</linearGradient>
</defs>
</svg>
